<svg width="581" height="52" viewBox="0 0 581 52" fill="none" xmlns="http://www.w3.org/2000/svg">
<path d="M120.9 26H86.4L52.7 0H87.2L120.9 26Z" fill="white"/>
<path d="M120.9 52H86.4L52.7 26H87.2L120.9 52Z" fill="white"/>
<path d="M52 52H26.1C11.7 52 0 40.3 0 25.9V25.8C0 11.6 11.5 0 25.8 0H52V52Z" fill="white"/>
<path d="M186.429 25.9091C186.429 30.509 185.557 34.4223 183.813 37.6491C182.083 40.8759 179.721 43.3407 176.728 45.0433C173.748 46.7322 170.398 47.5767 166.677 47.5767C162.928 47.5767 159.564 46.7254 156.585 45.0227C153.605 43.3201 151.25 40.8554 149.52 37.6286C147.79 34.4018 146.925 30.4953 146.925 25.9091C146.925 21.3092 147.79 17.3958 149.52 14.169C151.25 10.9422 153.605 8.48437 156.585 6.79545C159.564 5.0928 162.928 4.24148 166.677 4.24148C170.398 4.24148 173.748 5.0928 176.728 6.79545C179.721 8.48437 182.083 10.9422 183.813 14.169C185.557 17.3958 186.429 21.3092 186.429 25.9091ZM177.387 25.9091C177.387 22.9295 176.941 20.4167 176.048 18.3707C175.17 16.3248 173.927 14.7732 172.32 13.7159C170.714 12.6586 168.833 12.13 166.677 12.13C164.521 12.13 162.64 12.6586 161.033 13.7159C159.427 14.7732 158.177 16.3248 157.285 18.3707C156.406 20.4167 155.967 22.9295 155.967 25.9091C155.967 28.8887 156.406 31.4015 157.285 33.4474C158.177 35.4934 159.427 37.045 161.033 38.1023C162.64 39.1596 164.521 39.6882 166.677 39.6882C168.833 39.6882 170.714 39.1596 172.32 38.1023C173.927 37.045 175.17 35.4934 176.048 33.4474C176.941 31.4015 177.387 28.8887 177.387 25.9091ZM202.788 47.5149C200.385 47.5149 198.209 46.897 196.259 45.6612C194.323 44.4117 192.785 42.5786 191.645 40.1619C190.52 37.7315 189.957 34.7519 189.957 31.223C189.957 27.598 190.54 24.584 191.707 22.1811C192.874 19.7644 194.426 17.9588 196.362 16.7642C198.312 15.5559 200.447 14.9517 202.768 14.9517C204.539 14.9517 206.015 15.2538 207.196 15.858C208.391 16.4484 209.352 17.1899 210.079 18.0824C210.821 18.9612 211.384 19.8262 211.768 20.6776H212.036V4.81818H220.79V47H212.139V41.9332H211.768C211.356 42.812 210.773 43.6839 210.018 44.549C209.276 45.4003 208.308 46.1075 207.114 46.6705C205.933 47.2334 204.491 47.5149 202.788 47.5149ZM205.569 40.5327C206.983 40.5327 208.178 40.1482 209.153 39.3793C210.141 38.5966 210.896 37.505 211.418 36.1044C211.954 34.7038 212.221 33.063 212.221 31.1818C212.221 29.3007 211.961 27.6667 211.439 26.2798C210.917 24.893 210.162 23.822 209.173 23.0668C208.185 22.3116 206.983 21.9339 205.569 21.9339C204.127 21.9339 202.912 22.3253 201.923 23.108C200.935 23.8906 200.186 24.9754 199.678 26.3622C199.17 27.7491 198.916 29.3556 198.916 31.1818C198.916 33.0218 199.17 34.6489 199.678 36.0632C200.2 37.4638 200.948 38.5623 201.923 39.3587C202.912 40.1413 204.127 40.5327 205.569 40.5327ZM240.681 47.6179C237.427 47.6179 234.626 46.9588 232.278 45.6406C229.944 44.3087 228.145 42.4276 226.882 39.9972C225.618 37.553 224.987 34.6626 224.987 31.326C224.987 28.0717 225.618 25.2157 226.882 22.7578C228.145 20.3 229.923 18.3845 232.216 17.0114C234.523 15.6383 237.228 14.9517 240.331 14.9517C242.418 14.9517 244.361 15.2881 246.16 15.9609C247.972 16.62 249.551 17.6155 250.897 18.9474C252.257 20.2794 253.314 21.9545 254.069 23.973C254.824 25.9777 255.202 28.3258 255.202 31.017V33.4268H228.488V27.9893H246.943C246.943 26.7261 246.668 25.607 246.119 24.6321C245.569 23.6572 244.807 22.8951 243.832 22.3459C242.871 21.7829 241.752 21.5014 240.475 21.5014C239.143 21.5014 237.962 21.8104 236.933 22.4283C235.917 23.0324 235.12 23.8494 234.543 24.8793C233.967 25.8954 233.672 27.0282 233.658 28.2777V33.4474C233.658 35.0128 233.946 36.3653 234.523 37.505C235.113 38.6446 235.944 39.5234 237.015 40.1413C238.086 40.7592 239.356 41.0682 240.825 41.0682C241.8 41.0682 242.693 40.9309 243.503 40.6562C244.313 40.3816 245.007 39.9697 245.583 39.4205C246.16 38.8712 246.599 38.1984 246.901 37.402L255.016 37.9375C254.605 39.8873 253.76 41.59 252.483 43.0455C251.22 44.4872 249.586 45.6132 247.581 46.4233C245.59 47.2197 243.29 47.6179 240.681 47.6179ZM267.962 28.7102V47H259.188V15.3636H267.55V20.9453H267.921C268.621 19.1053 269.795 17.6499 271.443 16.5788C273.09 15.4941 275.088 14.9517 277.436 14.9517C279.633 14.9517 281.549 15.4323 283.183 16.3935C284.817 17.3546 286.087 18.7277 286.993 20.5128C287.899 22.2841 288.352 24.3987 288.352 26.8565V47H279.578V28.4219C279.592 26.4858 279.098 24.9754 278.095 23.8906C277.093 22.7921 275.713 22.2429 273.955 22.2429C272.775 22.2429 271.731 22.4969 270.825 23.005C269.932 23.513 269.232 24.2545 268.724 25.2294C268.23 26.1906 267.976 27.3509 267.962 28.7102ZM319.85 24.3849L311.818 24.8793C311.68 24.1927 311.385 23.5748 310.932 23.0256C310.479 22.4626 309.881 22.0163 309.14 21.6868C308.412 21.3435 307.54 21.1719 306.524 21.1719C305.165 21.1719 304.018 21.4602 303.085 22.0369C302.151 22.5999 301.684 23.3551 301.684 24.3026C301.684 25.0578 301.986 25.6963 302.59 26.218C303.194 26.7398 304.231 27.1586 305.7 27.4744L311.426 28.6278C314.502 29.2595 316.795 30.2756 318.305 31.6761C319.816 33.0767 320.571 34.9167 320.571 37.196C320.571 39.2694 319.96 41.0888 318.738 42.6541C317.53 44.2195 315.868 45.4415 313.754 46.3203C311.653 47.1854 309.229 47.6179 306.483 47.6179C302.295 47.6179 298.958 46.746 296.473 45.0021C294.001 43.2446 292.553 40.8554 292.127 37.8345L300.757 37.3814C301.018 38.6584 301.65 39.6333 302.652 40.3061C303.654 40.9652 304.938 41.2947 306.504 41.2947C308.041 41.2947 309.277 40.9995 310.211 40.4091C311.158 39.8049 311.639 39.0291 311.653 38.0817C311.639 37.2853 311.303 36.633 310.644 36.125C309.984 35.6032 308.968 35.205 307.595 34.9304L302.117 33.8388C299.027 33.2209 296.727 32.1499 295.217 30.6257C293.72 29.1016 292.972 27.1586 292.972 24.7969C292.972 22.7647 293.521 21.014 294.619 19.5447C295.732 18.0755 297.29 16.9427 299.295 16.1463C301.313 15.3499 303.675 14.9517 306.38 14.9517C310.376 14.9517 313.52 15.7962 315.813 17.4851C318.12 19.174 319.466 21.474 319.85 24.3849ZM338.774 47.6179C335.519 47.6179 332.718 46.9588 330.37 45.6406C328.036 44.3087 326.237 42.4276 324.974 39.9972C323.711 37.553 323.079 34.6626 323.079 31.326C323.079 28.0717 323.711 25.2157 324.974 22.7578C326.237 20.3 328.015 18.3845 330.309 17.0114C332.615 15.6383 335.32 14.9517 338.424 14.9517C340.511 14.9517 342.454 15.2881 344.252 15.9609C346.065 16.62 347.644 17.6155 348.99 18.9474C350.349 20.2794 351.406 21.9545 352.162 23.973C352.917 25.9777 353.294 28.3258 353.294 31.017V33.4268H326.581V27.9893H345.035C345.035 26.7261 344.76 25.607 344.211 24.6321C343.662 23.6572 342.9 22.8951 341.925 22.3459C340.964 21.7829 339.845 21.5014 338.568 21.5014C337.236 21.5014 336.055 21.8104 335.025 22.4283C334.009 23.0324 333.213 23.8494 332.636 24.8793C332.059 25.8954 331.764 27.0282 331.75 28.2777V33.4474C331.75 35.0128 332.039 36.3653 332.615 37.505C333.206 38.6446 334.037 39.5234 335.108 40.1413C336.179 40.7592 337.449 41.0682 338.918 41.0682C339.893 41.0682 340.785 40.9309 341.595 40.6562C342.406 40.3816 343.099 39.9697 343.676 39.4205C344.252 38.8712 344.692 38.1984 344.994 37.402L353.109 37.9375C352.697 39.8873 351.853 41.59 350.576 43.0455C349.312 44.4872 347.678 45.6132 345.674 46.4233C343.683 47.2197 341.383 47.6179 338.774 47.6179ZM369.129 47V4.81818H386.018C389.121 4.81818 391.71 5.27817 393.783 6.19815C395.856 7.11813 397.415 8.39512 398.458 10.0291C399.502 11.6494 400.024 13.5168 400.024 15.6314C400.024 17.2791 399.694 18.7277 399.035 19.9773C398.376 21.2131 397.47 22.2292 396.316 23.0256C395.177 23.8082 393.872 24.3643 392.403 24.6939V25.1058C394.009 25.1745 395.513 25.6276 396.914 26.4652C398.328 27.3028 399.474 28.4768 400.353 29.9872C401.232 31.4839 401.671 33.2689 401.671 35.3423C401.671 37.5805 401.115 39.5784 400.003 41.3359C398.905 43.0798 397.277 44.4598 395.122 45.4759C392.966 46.492 390.309 47 387.151 47H369.129ZM378.047 39.7088H385.318C387.803 39.7088 389.616 39.2351 390.755 38.2876C391.895 37.3265 392.465 36.0495 392.465 34.4567C392.465 33.2895 392.183 32.2597 391.62 31.3672C391.057 30.4747 390.254 29.7744 389.21 29.2663C388.181 28.7583 386.952 28.5043 385.524 28.5043H378.047V39.7088ZM378.047 22.4695H384.659C385.881 22.4695 386.965 22.2566 387.913 21.831C388.874 21.3916 389.629 20.7737 390.178 19.9773C390.741 19.1809 391.023 18.2266 391.023 17.1143C391.023 15.5902 390.481 14.3613 389.396 13.4276C388.325 12.4938 386.801 12.027 384.823 12.027H378.047V22.4695ZM414.591 47.5973C412.573 47.5973 410.774 47.2472 409.195 46.5469C407.616 45.8329 406.366 44.7824 405.446 43.3956C404.54 41.995 404.087 40.2512 404.087 38.1641C404.087 36.4065 404.409 34.9304 405.055 33.7358C405.7 32.5412 406.579 31.58 407.691 30.8523C408.803 30.1245 410.067 29.5753 411.481 29.2045C412.909 28.8338 414.406 28.5729 415.971 28.4219C417.811 28.2296 419.294 28.0511 420.42 27.8864C421.546 27.7079 422.363 27.447 422.871 27.1037C423.379 26.7604 423.633 26.2524 423.633 25.5795V25.456C423.633 24.1515 423.221 23.1423 422.397 22.4283C421.587 21.7143 420.434 21.3572 418.937 21.3572C417.358 21.3572 416.101 21.7074 415.168 22.4077C414.234 23.0942 413.616 23.9593 413.314 25.0028L405.199 24.3438C405.611 22.4214 406.421 20.7599 407.629 19.3594C408.838 17.9451 410.396 16.8603 412.305 16.1051C414.227 15.3362 416.452 14.9517 418.978 14.9517C420.736 14.9517 422.418 15.1577 424.024 15.5696C425.644 15.9815 427.079 16.62 428.329 17.4851C429.592 18.3501 430.588 19.4624 431.315 20.8217C432.043 22.1674 432.407 23.7808 432.407 25.6619V47H424.086V42.6129H423.839C423.331 43.6016 422.651 44.4735 421.8 45.2287C420.948 45.9702 419.926 46.5537 418.731 46.9794C417.536 47.3913 416.156 47.5973 414.591 47.5973ZM417.104 41.5419C418.394 41.5419 419.534 41.2879 420.523 40.7798C421.511 40.258 422.287 39.5578 422.85 38.679C423.413 37.8002 423.695 36.8047 423.695 35.6925V32.3352C423.42 32.5137 423.042 32.6785 422.562 32.8295C422.095 32.9669 421.566 33.0973 420.976 33.2209C420.386 33.3307 419.795 33.4337 419.205 33.5298C418.614 33.6122 418.079 33.6877 417.598 33.7564C416.568 33.9074 415.669 34.1477 414.9 34.4773C414.131 34.8068 413.534 35.2531 413.108 35.8161C412.682 36.3653 412.47 37.0518 412.47 37.8757C412.47 39.0703 412.902 39.9834 413.767 40.6151C414.646 41.233 415.758 41.5419 417.104 41.5419ZM437.474 47V15.3636H445.981V20.8835H446.31C446.887 18.92 447.855 17.437 449.214 16.4347C450.574 15.4186 452.139 14.9105 453.91 14.9105C454.35 14.9105 454.823 14.938 455.331 14.9929C455.84 15.0478 456.286 15.1233 456.67 15.2195V23.005C456.258 22.8814 455.688 22.7715 454.961 22.6754C454.233 22.5793 453.567 22.5312 452.963 22.5312C451.672 22.5312 450.519 22.8127 449.503 23.3757C448.5 23.925 447.704 24.6939 447.113 25.6825C446.537 26.6712 446.248 27.8108 446.248 29.1016V47H437.474ZM477.88 15.3636V21.9545H458.828V15.3636H477.88ZM463.153 7.78409H471.928V37.2784C471.928 38.0885 472.051 38.7202 472.298 39.1733C472.545 39.6127 472.889 39.9216 473.328 40.1001C473.781 40.2786 474.303 40.3679 474.894 40.3679C475.305 40.3679 475.717 40.3336 476.129 40.2649C476.541 40.1825 476.857 40.1207 477.077 40.0795L478.457 46.6087C478.017 46.746 477.399 46.9039 476.603 47.0824C475.807 47.2746 474.839 47.3913 473.699 47.4325C471.584 47.5149 469.731 47.2334 468.138 46.5881C466.559 45.9427 465.33 44.9403 464.451 43.581C463.572 42.2216 463.14 40.5052 463.153 38.4318V7.78409ZM495.933 47.6179C492.679 47.6179 489.878 46.9588 487.53 45.6406C485.196 44.3087 483.397 42.4276 482.134 39.9972C480.87 37.553 480.239 34.6626 480.239 31.326C480.239 28.0717 480.87 25.2157 482.134 22.7578C483.397 20.3 485.175 18.3845 487.468 17.0114C489.775 15.6383 492.48 14.9517 495.583 14.9517C497.67 14.9517 499.613 15.2881 501.412 15.9609C503.225 16.62 504.804 17.6155 506.149 18.9474C507.509 20.2794 508.566 21.9545 509.321 23.973C510.076 25.9777 510.454 28.3258 510.454 31.017V33.4268H483.74V27.9893H502.195C502.195 26.7261 501.92 25.607 501.371 24.6321C500.822 23.6572 500.06 22.8951 499.085 22.3459C498.123 21.7829 497.004 21.5014 495.727 21.5014C494.395 21.5014 493.215 21.8104 492.185 22.4283C491.169 23.0324 490.372 23.8494 489.796 24.8793C489.219 25.8954 488.924 27.0282 488.91 28.2777V33.4474C488.91 35.0128 489.198 36.3653 489.775 37.505C490.365 38.6446 491.196 39.5234 492.267 40.1413C493.338 40.7592 494.608 41.0682 496.077 41.0682C497.052 41.0682 497.945 40.9309 498.755 40.6562C499.565 40.3816 500.259 39.9697 500.835 39.4205C501.412 38.8712 501.851 38.1984 502.153 37.402L510.269 37.9375C509.857 39.8873 509.012 41.59 507.735 43.0455C506.472 44.4872 504.838 45.6132 502.833 46.4233C500.842 47.2197 498.542 47.6179 495.933 47.6179ZM528.734 47.6179C525.493 47.6179 522.706 46.9313 520.372 45.5582C518.051 44.1714 516.266 42.2491 515.016 39.7912C513.781 37.3333 513.163 34.5047 513.163 31.3054C513.163 28.0649 513.788 25.2225 515.037 22.7784C516.3 20.3205 518.092 18.4051 520.413 17.032C522.733 15.6451 525.493 14.9517 528.693 14.9517C531.453 14.9517 533.869 15.4529 535.943 16.4553C538.016 17.4576 539.657 18.8651 540.865 20.6776C542.074 22.4901 542.739 24.6184 542.863 27.0625H534.583C534.35 25.4834 533.732 24.2133 532.73 23.2521C531.741 22.2772 530.443 21.7898 528.837 21.7898C527.477 21.7898 526.29 22.1605 525.274 22.902C524.271 23.6297 523.489 24.6939 522.926 26.0945C522.363 27.495 522.081 29.1908 522.081 31.1818C522.081 33.2003 522.356 34.9167 522.905 36.331C523.468 37.7453 524.257 38.8232 525.274 39.5646C526.29 40.3061 527.477 40.6768 528.837 40.6768C529.839 40.6768 530.739 40.4709 531.535 40.0589C532.345 39.647 533.011 39.0497 533.533 38.267C534.068 37.4706 534.418 36.5163 534.583 35.4041H542.863C542.726 37.8208 542.067 39.9491 540.886 41.7891C539.719 43.6153 538.105 45.0433 536.046 46.0732C533.986 47.103 531.549 47.6179 528.734 47.6179ZM555.515 28.7102V47H546.741V4.81818H555.268V20.9453H555.639C556.353 19.0779 557.506 17.6155 559.099 16.5582C560.692 15.4872 562.689 14.9517 565.092 14.9517C567.289 14.9517 569.205 15.4323 570.839 16.3935C572.487 17.3409 573.764 18.7071 574.67 20.4922C575.59 22.2635 576.043 24.3849 576.029 26.8565V47H567.255V28.4219C567.269 26.4721 566.774 24.9548 565.772 23.87C564.783 22.7853 563.397 22.2429 561.612 22.2429C560.417 22.2429 559.36 22.4969 558.44 23.005C557.533 23.513 556.819 24.2545 556.298 25.2294C555.79 26.1906 555.529 27.3509 555.515 28.7102Z" fill="white"/>
</svg>
